# xmcd
#
# Track frame offsets: 
#        150
#        23547
#        39567
#        63584
#        88095
#        104540
#        132432
#        154323
#        171226
#        192139
#        220065
#
# Disc length: 3450 seconds
#
# Revision: 1
# Processed by: cddbd v1.5.2PL0 Copyright (c) Steve Scherf et al.
# Submitted via: ExactAudioCopy v1.0b4
#
DISCID=970d780b
DTITLE=Gugun Blues Shelter - Soul Shaker
DYEAR=2013
DGENRE=Blues
TTITLE0=Love Your Life
TTITLE1=Born to Be Awesome
TTITLE2=Fire Underwater
TTITLE3=Driving Home Alone
TTITLE4=Captain Morgan
TTITLE5=Funk #2
TTITLE6=Acid Rain
TTITLE7=The Good Old Days
TTITLE8=Slaves to the Nation
TTITLE9=Rock 'N Roll Superstar
TTITLE10=Wounded Heart
EXTD=
EXTT0=
EXTT1=
EXTT2=
EXTT3=
EXTT4=
EXTT5=
EXTT6=
EXTT7=
EXTT8=
EXTT9=
EXTT10=
PLAYORDER=
